<?xml version="1.0" standalone="no"?>
<!DOCTYPE svg PUBLIC "-//W3C//DTD SVG 20010904//EN"
 "http://www.w3.org/TR/2001/REC-SVG-20010904/DTD/svg10.dtd">
<svg version="1.0" xmlns="http://www.w3.org/2000/svg"
 width="4001.000000pt" height="4001.000000pt" viewBox="0 0 4001.000000 4001.000000"
 preserveAspectRatio="xMidYMid meet">

<g transform="translate(0.000000,4001.000000) scale(0.100000,-0.100000)"
fill="#000000" stroke="none">
<path d="M19820 33213 c-803 -51 -1545 -394 -2102 -971 -487 -504 -783 -1137
-869 -1857 -19 -156 -16 -525 5 -705 45 -382 139 -696 311 -1045 224 -453 530
-823 930 -1125 447 -337 935 -537 1505 -617 181 -25 635 -25 815 0 540 77
1009 262 1440 568 639 455 1102 1164 1259 1931 51 249 61 352 60 663 0 312
-12 433 -70 695 -34 151 -128 434 -197 588 -368 821 -1065 1447 -1922 1725
-305 100 -584 145 -920 151 -104 1 -215 1 -245 -1z m410 -1313 c309 -77 567
-333 652 -645 32 -118 32 -348 0 -459 -64 -224 -197 -407 -384 -529 l-78 -50
108 -37 c540 -184 935 -624 1068 -1190 19 -78 27 -146 31 -262 l6 -158 -1627
0 -1626 0 0 83 c0 226 54 461 156 676 194 410 539 716 967 856 l98 32 -48 28
c-161 94 -288 235 -369 411 -95 204 -104 467 -24 682 112 301 370 516 693 578
98 19 269 12 377 -16z"/>
<path d="M19820 31760 c-218 -57 -416 -225 -509 -435 -78 -175 -79 -411 -4
-589 66 -158 208 -312 355 -384 132 -66 227 -86 378 -79 170 7 276 43 417 143
211 150 338 439 304 693 -24 183 -96 328 -226 456 -94 94 -215 163 -341 195
-103 27 -270 26 -374 0z"/>
<path d="M19759 30100 c-509 -90 -939 -439 -1130 -915 -43 -109 -88 -290 -96
-391 l-6 -84 1483 0 1482 0 -7 63 c-60 551 -396 1013 -894 1227 -256 111 -562
147 -832 100z"/>
<path d="M10971 23526 c-47 -17 -108 -71 -131 -116 -50 -98 -34 -196 44 -276
l51 -52 -62 -32 c-148 -76 -213 -208 -213 -432 l0 -88 391 0 391 0 -4 143 c-3
133 -5 146 -33 202 -36 75 -109 149 -180 181 l-54 25 49 47 c80 78 98 190 46
290 -50 95 -189 146 -295 108z"/>
<path d="M10927 20116 c-55 -20 -103 -56 -135 -101 -38 -53 -51 -95 -59 -182
l-6 -73 -49 0 c-41 0 -54 -5 -79 -29 l-29 -29 0 -312 0 -312 29 -29 29 -29
387 0 c258 0 393 4 407 11 43 23 48 61 48 364 0 236 -3 291 -15 315 -20 39
-43 50 -104 50 l-51 0 0 68 c0 97 -23 157 -84 218 -78 78 -190 105 -289 70z
m171 -136 c52 -32 72 -74 72 -153 l0 -68 -152 3 -153 3 0 67 c0 74 16 105 75
146 43 29 112 30 158 2z m6 -501 c61 -53 61 -129 1 -183 -32 -29 -34 -36 -37
-101 l-3 -70 -40 0 -40 0 -3 69 c-3 65 -6 73 -37 103 -39 38 -53 89 -35 132
34 83 129 107 194 50z"/>
<path d="M12116 16851 c-3 -4 -4 -165 -3 -357 l2 -349 350 0 350 0 0 335 c0
184 -4 344 -8 355 -7 16 -7 17 3 5 10 -13 11 -13 7 0 -3 13 -52 15 -350 17
-190 1 -349 -1 -351 -6z m24 -5 c0 -3 -4 -8 -10 -11 -5 -3 -10 -1 -10 4 0 6 5
11 10 11 6 0 10 -2 10 -4z m13 -21 c-3 -9 -8 -14 -10 -11 -3 3 -2 9 2 15 9 16
15 13 8 -4z m-11 -659 c7 4 8 3 4 -4 -22 -37 -26 10 -24 326 l3 337 2 -333 c3
-246 6 -331 15 -326z m568 630 c-14 -14 -13 -29 2 -20 7 4 8 3 4 -4 -4 -6 -2
-20 3 -30 13 -24 3 -36 -16 -21 -19 16 -16 3 4 -21 19 -22 35 -27 28 -7 -3 7
8 16 28 23 25 7 34 7 34 -2 0 -7 -6 -10 -14 -7 -19 7 -16 -7 5 -23 15 -12 15
-12 -5 -7 -13 3 -23 9 -23 14 0 5 -4 9 -9 9 -5 0 -8 -11 -7 -25 2 -13 0 -23
-3 -22 -3 1 -93 -84 -199 -190 l-192 -192 -73 74 c-75 76 -99 91 -90 55 3 -11
10 -20 15 -20 5 0 6 5 3 10 -10 16 1 11 16 -7 10 -11 10 -14 2 -9 -8 4 -13 2
-13 -5 0 -7 8 -9 21 -6 12 3 19 3 16 0 -7 -7 16 -32 25 -27 3 2 4 -5 1 -16 -3
-12 0 -20 6 -20 7 0 9 5 5 13 -5 8 -2 8 9 -2 18 -15 23 -26 7 -16 -5 3 -10 1
-10 -4 0 -6 9 -11 20 -11 11 0 20 -5 20 -11 0 -6 7 -9 15 -5 8 3 15 1 15 -4 0
-5 -11 -9 -24 -8 -14 1 -23 5 -20 9 2 4 -11 6 -29 5 -30 -1 -32 1 -30 31 1 21
-3 32 -10 30 -7 -1 -11 3 -10 9 1 7 -11 11 -30 10 -30 -1 -32 1 -30 32 1 20
-2 30 -8 26 -6 -3 -5 4 3 15 8 14 9 24 3 29 -18 13 -16 32 4 32 20 0 44 22 36
33 -3 4 -2 5 2 2 3 -3 14 2 23 10 17 15 55 11 45 -5 -2 -4 13 -24 35 -44 21
-19 41 -32 45 -27 3 5 -1 12 -7 14 -7 3 -3 6 8 6 20 1 56 31 38 31 -5 1 3 7
18 15 15 8 29 24 33 35 3 11 12 19 18 17 7 -1 11 3 10 10 -2 6 6 15 17 18 11
4 26 18 34 33 8 15 17 26 20 25 3 -2 6 0 7 5 0 4 11 13 24 19 13 7 27 22 30
33 4 11 11 18 16 15 5 -4 10 -1 10 4 1 6 2 17 3 24 0 6 8 12 16 12 9 0 14 -7
12 -17 -2 -12 4 -16 18 -15 23 1 25 8 8 25 -19 19 -17 51 4 49 12 -1 14 -5 8
-11z m-35 -6 c3 -5 1 -10 -4 -10 -6 0 -11 5 -11 10 0 6 2 10 4 10 3 0 8 -4 11
-10z m-95 -75 c-7 -9 -15 -13 -17 -11 -7 7 7 26 19 26 6 0 6 -6 -2 -15z m15
-15 c-10 -11 -22 -20 -26 -20 -5 0 2 10 14 23 27 28 38 25 12 -3z m190 -48
c-3 -3 -11 0 -18 7 -9 10 -8 11 6 5 10 -3 15 -9 12 -12z m-285 -17 c-7 -9 -15
-13 -17 -11 -7 7 7 26 19 26 6 0 6 -6 -2 -15z m15 -15 c-10 -11 -22 -20 -26
-20 -5 0 2 10 14 23 27 28 38 25 12 -3z m201 -23 c0 -17 -6 -23 -23 -23 l-23
0 22 23 c12 13 22 23 23 23 0 0 1 -10 1 -23z m-511 -38 c-4 -5 -1 -9 6 -9 7 0
5 -8 -7 -21 -10 -11 -20 -16 -22 -10 -2 6 -7 9 -11 7 -4 -3 -6 5 -5 17 1 12 3
22 3 22 12 6 40 1 36 -6z m65 -3 c0 -6 5 -4 10 4 8 12 10 12 10 1 0 -11 3 -11
15 -1 13 11 14 10 9 -4 -4 -11 -14 -15 -32 -11 -14 2 -33 -1 -41 -7 -9 -7 -13
-8 -9 -4 4 5 4 14 -2 21 -6 8 -2 11 15 11 14 0 25 -5 25 -10z m150 -1 c-7 -9
-15 -13 -17 -11 -7 7 7 26 19 26 6 0 6 -6 -2 -15z m15 -15 c-10 -11 -22 -20
-26 -20 -5 0 2 10 14 23 27 28 38 25 12 -3z m201 -23 c0 -17 -6 -23 -23 -23
l-23 0 22 23 c12 13 22 23 23 23 0 0 1 -10 1 -23z m-329 -9 c-3 -8 -6 -5 -6 6
-1 11 2 17 5 13 3 -3 4 -12 1 -19z m43 -24 c0 -8 -19 -13 -24 -6 -3 5 1 9 9 9
8 0 15 -2 15 -3z m206 -47 c0 -17 -6 -23 -23 -23 l-23 0 22 23 c12 13 22 23
23 23 0 0 1 -10 1 -23z m-80 -80 c0 -17 -6 -23 -23 -23 l-23 0 22 23 c12 13
22 23 23 23 0 0 1 -10 1 -23z m-81 -75 c0 -16 -5 -29 -12 -29 -15 0 -17 10 -5
21 4 4 8 12 8 17 4 30 10 25 9 -9z"/>
<path d="M12180 16360 c0 -5 5 -10 10 -10 6 0 10 5 10 10 0 6 -4 10 -10 10 -5
0 -10 -4 -10 -10z"/>
<path d="M12260 16280 c0 -5 5 -10 10 -10 6 0 10 5 10 10 0 6 -4 10 -10 10 -5
0 -10 -4 -10 -10z"/>
<path d="M12177 16545 c3 -8 9 -12 14 -9 12 7 11 11 -5 17 -10 4 -13 1 -9 -8z"/>
<path d="M12849 14880 c-307 -30 -588 -158 -815 -373 -209 -198 -351 -452
-410 -732 -24 -113 -27 -421 -5 -530 38 -194 139 -422 255 -576 84 -111 229
-249 341 -323 152 -101 301 -163 505 -209 l95 -21 7115 -4 c5290 -2 7145 0
7230 8 668 67 1178 575 1251 1246 27 255 -25 524 -148 767 -193 379 -548 644
-983 734 -81 16 -459 17 -7220 19 -3924 1 -7169 -2 -7211 -6z m6623 -1150 c65
-18 130 -70 160 -129 23 -44 28 -66 28 -125 0 -164 -108 -266 -279 -266 -187
1 -309 164 -257 344 40 138 198 217 348 176z m753 -17 c22 -12 48 -30 58 -41
19 -20 18 -21 -7 -48 l-25 -28 -53 27 c-135 69 -277 -6 -278 -146 0 -103 61
-169 164 -175 33 -2 73 1 89 7 26 10 27 12 27 91 l0 80 50 0 50 0 0 -105 0
-105 -52 -26 c-64 -33 -182 -44 -244 -24 -61 20 -121 66 -150 116 -32 55 -43
152 -24 219 18 64 87 138 153 165 68 26 183 23 242 -7z m-1495 -198 l0 -215
130 0 130 0 0 -45 0 -45 -180 0 -180 0 0 260 0 260 50 0 50 0 0 -215z m1880
-45 l0 -260 -50 0 -50 0 0 260 0 260 50 0 50 0 0 -260z m445 93 l130 -161 3
164 2 164 50 0 50 0 0 -260 0 -260 -38 0 c-37 0 -41 4 -177 173 l-140 172 -3
-172 -2 -173 -45 0 -45 0 0 261 0 260 42 -3 c42 -3 45 -6 173 -165z"/>
<path d="M19315 13636 c-127 -55 -136 -254 -14 -316 82 -42 179 -20 233 53 31
43 30 159 -2 205 -46 63 -144 90 -217 58z"/>
</g>
</svg>
